<svg xmlns="http://www.w3.org/2000/svg" width="980" height="500" viewBox="0 0 980 500">
<rect width="100%" height="100%" fill="#ffffff"/>
<style>text{font-family:Helvetica,Arial,sans-serif;fill:#111}.axis{stroke:#555;stroke-width:1.2}.grid{stroke:#d0d0d0;stroke-width:1}.loss{fill:#444}.gain{fill:#aaa}.label{font-size:14px}.small{font-size:12px;fill:#444}.value{font-size:13px;font-weight:700}.inverse{fill:#fff}.title{font-size:21px;font-weight:700}</style>
<text x="40" y="31" class="title">Foundation concept leave-one-out results</text>
<line x1="343.2" y1="55" x2="343.2" y2="445" class="grid"/>
<text x="343.2" y="469" text-anchor="middle" class="label">-16%</text>
<line x1="475.8" y1="55" x2="475.8" y2="445" class="grid"/>
<text x="475.8" y="469" text-anchor="middle" class="label">-12%</text>
<line x1="608.4" y1="55" x2="608.4" y2="445" class="grid"/>
<text x="608.4" y="469" text-anchor="middle" class="label">-8%</text>
<line x1="741.1" y1="55" x2="741.1" y2="445" class="grid"/>
<text x="741.1" y="469" text-anchor="middle" class="label">-4%</text>
<line x1="873.7" y1="55" x2="873.7" y2="445" class="grid"/>
<text x="873.7" y="469" text-anchor="middle" class="label">0%</text>
<line x1="873.7" y1="55" x2="873.7" y2="445" class="axis"/>
<text x="295" y="94.5" text-anchor="end" class="label">JAX RMSNorm recognition</text>
<rect x="337.7" y="68.0" width="536.0" height="39.0" rx="3" class="loss"/>
<text x="345.7" y="94.5" text-anchor="start" class="value inverse">-16.16%</text>
<text x="295" y="159.5" text-anchor="end" class="label">SiLU call lowering</text>
<rect x="873.7" y="133.0" width="14.9" height="39.0" rx="3" class="gain"/>
<text x="896.6" y="159.5" text-anchor="start" class="value">+0.45%</text>
<text x="295" y="224.5" text-anchor="end" class="label">rank-3 decode RoPE fusion</text>
<rect x="780.7" y="198.0" width="93.0" height="39.0" rx="3" class="loss"/>
<text x="772.7" y="224.5" text-anchor="end" class="value">-2.81%</text>
<text x="295" y="289.5" text-anchor="end" class="label">KV-cache result typing</text>
<rect x="855.7" y="263.0" width="18.0" height="39.0" rx="3" class="loss"/>
<text x="847.7" y="289.5" text-anchor="end" class="value">-0.54%</text>
<text x="295" y="354.5" text-anchor="end" class="label">BF8 activation lowering</text>
<rect x="865.2" y="328.0" width="8.4" height="39.0" rx="3" class="loss"/>
<text x="857.2" y="354.5" text-anchor="end" class="value">-0.25%</text>
<text x="295" y="419.5" text-anchor="end" class="label">decode layout admission</text>
<rect x="873.7" y="393.0" width="21.7" height="39.0" rx="3" class="gain"/>
<text x="903.4" y="419.5" text-anchor="start" class="value">+0.66%</text>
<text x="310" y="486" class="small">Change in mean throughput when the concept is omitted; 32 retained requests per omission.</text>
</svg>
