<svg xmlns="http://www.w3.org/2000/svg" width="980" height="500" viewBox="0 0 980 500">
<rect width="100%" height="100%" fill="#ffffff"/>
<style>text{font-family:Inter,Helvetica,Arial,sans-serif;fill:#172033}.axis{stroke:#718096;stroke-width:1.2}.grid{stroke:#dbe4ee;stroke-width:1}.pos{fill:#006d77}.neg{fill:#c84b31}.neutral{fill:#8395a7}.label{font-size:14px}.small{font-size:12px;fill:#526174}.value{font-size:13px;font-weight:700}.title{font-size:21px;font-weight:700}</style>
<text x="90" y="29" class="title">Incremental effect of each cumulative revision</text>
<line x1="90" y1="386.9" x2="955" y2="386.9" class="grid"/>
<text x="78" y="391.9" text-anchor="end" class="label">-2%</text>
<line x1="90" y1="360.6" x2="955" y2="360.6" class="grid"/>
<text x="78" y="365.6" text-anchor="end" class="label">0%</text>
<line x1="90" y1="308.0" x2="955" y2="308.0" class="grid"/>
<text x="78" y="313.0" text-anchor="end" class="label">4%</text>
<line x1="90" y1="255.4" x2="955" y2="255.4" class="grid"/>
<text x="78" y="260.4" text-anchor="end" class="label">8%</text>
<line x1="90" y1="202.8" x2="955" y2="202.8" class="grid"/>
<text x="78" y="207.8" text-anchor="end" class="label">12%</text>
<line x1="90" y1="150.2" x2="955" y2="150.2" class="grid"/>
<text x="78" y="155.2" text-anchor="end" class="label">16%</text>
<line x1="90" y1="97.6" x2="955" y2="97.6" class="grid"/>
<text x="78" y="102.6" text-anchor="end" class="label">20%</text>
<line x1="90" y1="45.0" x2="955" y2="45.0" class="grid"/>
<text x="78" y="50.0" text-anchor="end" class="label">24%</text>
<line x1="90" y1="360.6" x2="955" y2="360.6" class="axis"/>
<rect x="107.3" y="63.6" width="61.5" height="296.9" rx="3" class="pos"/>
<text x="138.1" y="55.6" text-anchor="middle" class="value">+22.58%</text>
<text x="138.1" y="429" text-anchor="middle" class="label">V1</text>
<text x="138.1" y="448" text-anchor="middle" class="small">9978a9b</text>
<rect x="203.4" y="317.2" width="61.5" height="43.4" rx="3" class="pos"/>
<text x="234.2" y="309.2" text-anchor="middle" class="value">+3.30%</text>
<text x="234.2" y="429" text-anchor="middle" class="label">V2</text>
<text x="234.2" y="448" text-anchor="middle" class="small">10459b5</text>
<rect x="299.5" y="345.5" width="61.5" height="15.1" rx="3" class="pos"/>
<text x="330.3" y="337.5" text-anchor="middle" class="value">+1.15%</text>
<text x="330.3" y="429" text-anchor="middle" class="label">V3</text>
<text x="330.3" y="448" text-anchor="middle" class="small">3fe072b</text>
<rect x="395.6" y="360.6" width="61.5" height="22.3" rx="3" class="neg"/>
<text x="426.4" y="400.8" text-anchor="middle" class="value">-1.69%</text>
<text x="426.4" y="429" text-anchor="middle" class="label">V4</text>
<text x="426.4" y="448" text-anchor="middle" class="small">83baa8d</text>
<rect x="491.7" y="181.6" width="61.5" height="178.9" rx="3" class="pos"/>
<text x="522.5" y="173.6" text-anchor="middle" class="value">+13.61%</text>
<text x="522.5" y="429" text-anchor="middle" class="label">V5</text>
<text x="522.5" y="448" text-anchor="middle" class="small">e534690</text>
<rect x="587.9" y="360.6" width="61.5" height="8.6" rx="3" class="neutral"/>
<text x="618.6" y="387.1" text-anchor="middle" class="value">-0.65%</text>
<text x="618.6" y="429" text-anchor="middle" class="label">V6</text>
<text x="618.6" y="448" text-anchor="middle" class="small">a718685</text>
<rect x="684.0" y="324.7" width="61.5" height="35.9" rx="3" class="pos"/>
<text x="714.7" y="316.7" text-anchor="middle" class="value">+2.73%</text>
<text x="714.7" y="429" text-anchor="middle" class="label">V7</text>
<text x="714.7" y="448" text-anchor="middle" class="small">ce99831</text>
<rect x="780.1" y="360.6" width="61.5" height="2.5" rx="3" class="neutral"/>
<text x="810.8" y="381.1" text-anchor="middle" class="value">-0.19%</text>
<text x="810.8" y="429" text-anchor="middle" class="label">V8</text>
<text x="810.8" y="448" text-anchor="middle" class="small">caa5428</text>
<rect x="876.2" y="226.0" width="61.5" height="134.5" rx="3" class="pos"/>
<text x="906.9" y="218.0" text-anchor="middle" class="value">+10.23%</text>
<text x="906.9" y="429" text-anchor="middle" class="label">V9</text>
<text x="906.9" y="448" text-anchor="middle" class="small">627a32d</text>
<text transform="translate(23 222.5) rotate(-90)" text-anchor="middle" class="label">throughput change vs. preceding revision</text>
<text x="90" y="482" class="small">Teal/red: Holm-adjusted p&lt;0.05; gray: not statistically distinguishable from the preceding revision.</text>
</svg>
