<svg xmlns="http://www.w3.org/2000/svg" width="980" height="500" viewBox="0 0 980 500">
<rect width="100%" height="100%" fill="#ffffff"/>
<style>text{font-family:Helvetica,Arial,sans-serif;fill:#111}.axis{stroke:#555;stroke-width:1.2}.grid{stroke:#d0d0d0;stroke-width:1}.pos{fill:#333}.neg{fill:#aaa}.label{font-size:14px}.small{font-size:12px;fill:#444}.value{font-size:13px;font-weight:700}.title{font-size:21px;font-weight:700}</style>
<text x="90" y="29" class="title">Incremental throughput change</text>
<line x1="90" y1="386.9" x2="955" y2="386.9" class="grid"/>
<text x="78" y="391.9" text-anchor="end" class="label">-2%</text>
<line x1="90" y1="360.6" x2="955" y2="360.6" class="grid"/>
<text x="78" y="365.6" text-anchor="end" class="label">0%</text>
<line x1="90" y1="308.0" x2="955" y2="308.0" class="grid"/>
<text x="78" y="313.0" text-anchor="end" class="label">4%</text>
<line x1="90" y1="255.4" x2="955" y2="255.4" class="grid"/>
<text x="78" y="260.4" text-anchor="end" class="label">8%</text>
<line x1="90" y1="202.8" x2="955" y2="202.8" class="grid"/>
<text x="78" y="207.8" text-anchor="end" class="label">12%</text>
<line x1="90" y1="150.2" x2="955" y2="150.2" class="grid"/>
<text x="78" y="155.2" text-anchor="end" class="label">16%</text>
<line x1="90" y1="97.6" x2="955" y2="97.6" class="grid"/>
<text x="78" y="102.6" text-anchor="end" class="label">20%</text>
<line x1="90" y1="45.0" x2="955" y2="45.0" class="grid"/>
<text x="78" y="50.0" text-anchor="end" class="label">24%</text>
<line x1="90" y1="360.6" x2="955" y2="360.6" class="axis"/>
<rect x="105.6" y="63.6" width="55.4" height="296.9" rx="3" class="pos"/>
<text x="133.2" y="55.6" text-anchor="middle" class="value">+22.58%</text>
<text x="133.2" y="429" text-anchor="middle" class="label">V1</text>
<text x="133.2" y="448" text-anchor="middle" class="small">decode foundation</text>
<rect x="192.1" y="317.2" width="55.4" height="43.4" rx="3" class="pos"/>
<text x="219.8" y="309.2" text-anchor="middle" class="value">+3.30%</text>
<text x="219.8" y="429" text-anchor="middle" class="label">V2</text>
<text x="219.8" y="448" text-anchor="middle" class="small">SiLU graph</text>
<rect x="278.6" y="345.5" width="55.4" height="15.1" rx="3" class="pos"/>
<text x="306.2" y="337.5" text-anchor="middle" class="value">+1.15%</text>
<text x="306.2" y="429" text-anchor="middle" class="label">V3</text>
<text x="306.2" y="448" text-anchor="middle" class="small">QKV graph</text>
<rect x="365.1" y="360.6" width="55.4" height="22.3" rx="3" class="neg"/>
<text x="392.8" y="400.8" text-anchor="middle" class="value">-1.69%</text>
<text x="392.8" y="429" text-anchor="middle" class="label">V4</text>
<text x="392.8" y="448" text-anchor="middle" class="small">shared LHS</text>
<rect x="451.6" y="181.6" width="55.4" height="178.9" rx="3" class="pos"/>
<text x="479.2" y="173.6" text-anchor="middle" class="value">+13.61%</text>
<text x="479.2" y="429" text-anchor="middle" class="label">V5</text>
<text x="479.2" y="448" text-anchor="middle" class="small">RMSNorm shard</text>
<rect x="538.1" y="360.6" width="55.4" height="8.6" rx="3" class="neg"/>
<text x="565.8" y="387.1" text-anchor="middle" class="value">-0.65%</text>
<text x="565.8" y="429" text-anchor="middle" class="label">V6</text>
<text x="565.8" y="448" text-anchor="middle" class="small">SiLU multiply</text>
<rect x="624.6" y="324.7" width="55.4" height="35.9" rx="3" class="pos"/>
<text x="652.2" y="316.7" text-anchor="middle" class="value">+2.73%</text>
<text x="652.2" y="429" text-anchor="middle" class="label">V7</text>
<text x="652.2" y="448" text-anchor="middle" class="small">Dst SwiGLU</text>
<rect x="711.1" y="360.6" width="55.4" height="2.5" rx="3" class="neg"/>
<text x="738.8" y="381.1" text-anchor="middle" class="value">-0.19%</text>
<text x="738.8" y="429" text-anchor="middle" class="label">V8</text>
<text x="738.8" y="448" text-anchor="middle" class="small">one path</text>
<rect x="797.6" y="226.0" width="55.4" height="134.5" rx="3" class="pos"/>
<text x="825.2" y="218.0" text-anchor="middle" class="value">+10.23%</text>
<text x="825.2" y="429" text-anchor="middle" class="label">V9</text>
<text x="825.2" y="448" text-anchor="middle" class="small">prefill trace</text>
<rect x="884.1" y="285.3" width="55.4" height="75.3" rx="3" class="pos"/>
<text x="911.8" y="277.3" text-anchor="middle" class="value">+5.73%</text>
<text x="911.8" y="429" text-anchor="middle" class="label">V10</text>
<text x="911.8" y="448" text-anchor="middle" class="small">MLP kernels</text>
<text transform="translate(23 222.5) rotate(-90)" text-anchor="middle" class="label">throughput change vs. preceding stage</text>
<text x="90" y="482" class="small">Bars show the measured throughput change from the preceding stage.</text>
</svg>
