<svg xmlns="http://www.w3.org/2000/svg" width="980" height="500" viewBox="0 0 980 500">
<rect width="100%" height="100%" fill="#ffffff"/>
<style>text{font-family:Inter,Helvetica,Arial,sans-serif;fill:#172033}.axis{stroke:#718096;stroke-width:1.2}.grid{stroke:#dbe4ee;stroke-width:1}.pos{fill:#006d77}.neg{fill:#c84b31}.neutral{fill:#8395a7}.label{font-size:14px}.small{font-size:12px;fill:#526174}.value{font-size:13px;font-weight:700}.title{font-size:21px;font-weight:700}</style>
<text x="90" y="29" class="title">Incremental effect of each cumulative revision</text>
<line x1="90" y1="380.3" x2="955" y2="380.3" class="grid"/>
<text x="78" y="385.3" text-anchor="end" class="label">-2%</text>
<line x1="90" y1="340.8" x2="955" y2="340.8" class="grid"/>
<text x="78" y="345.8" text-anchor="end" class="label">0%</text>
<line x1="90" y1="301.4" x2="955" y2="301.4" class="grid"/>
<text x="78" y="306.4" text-anchor="end" class="label">2%</text>
<line x1="90" y1="261.9" x2="955" y2="261.9" class="grid"/>
<text x="78" y="266.9" text-anchor="end" class="label">4%</text>
<line x1="90" y1="222.5" x2="955" y2="222.5" class="grid"/>
<text x="78" y="227.5" text-anchor="end" class="label">6%</text>
<line x1="90" y1="183.1" x2="955" y2="183.1" class="grid"/>
<text x="78" y="188.1" text-anchor="end" class="label">8%</text>
<line x1="90" y1="143.6" x2="955" y2="143.6" class="grid"/>
<text x="78" y="148.6" text-anchor="end" class="label">10%</text>
<line x1="90" y1="104.2" x2="955" y2="104.2" class="grid"/>
<text x="78" y="109.2" text-anchor="end" class="label">12%</text>
<line x1="90" y1="64.7" x2="955" y2="64.7" class="grid"/>
<text x="78" y="69.7" text-anchor="end" class="label">14%</text>
<line x1="90" y1="340.8" x2="955" y2="340.8" class="axis"/>
<rect x="109.5" y="-104.5" width="69.2" height="445.4" rx="3" class="pos"/>
<text x="144.1" y="-112.5" text-anchor="middle" class="value">+22.58%</text>
<text x="144.1" y="429" text-anchor="middle" class="label">V1</text>
<text x="144.1" y="448" text-anchor="middle" class="small">9978a9b</text>
<rect x="217.6" y="275.8" width="69.2" height="65.1" rx="3" class="pos"/>
<text x="252.2" y="267.8" text-anchor="middle" class="value">+3.30%</text>
<text x="252.2" y="429" text-anchor="middle" class="label">V2</text>
<text x="252.2" y="448" text-anchor="middle" class="small">10459b5</text>
<rect x="325.7" y="318.2" width="69.2" height="22.6" rx="3" class="pos"/>
<text x="360.3" y="310.2" text-anchor="middle" class="value">+1.15%</text>
<text x="360.3" y="429" text-anchor="middle" class="label">V3</text>
<text x="360.3" y="448" text-anchor="middle" class="small">3fe072b</text>
<rect x="433.8" y="340.8" width="69.2" height="33.4" rx="3" class="neg"/>
<text x="468.4" y="392.3" text-anchor="middle" class="value">-1.69%</text>
<text x="468.4" y="429" text-anchor="middle" class="label">V4</text>
<text x="468.4" y="448" text-anchor="middle" class="small">83baa8d</text>
<rect x="542.0" y="72.5" width="69.2" height="268.4" rx="3" class="pos"/>
<text x="576.6" y="64.5" text-anchor="middle" class="value">+13.61%</text>
<text x="576.6" y="429" text-anchor="middle" class="label">V5</text>
<text x="576.6" y="448" text-anchor="middle" class="small">e534690</text>
<rect x="650.1" y="340.8" width="69.2" height="12.9" rx="3" class="neutral"/>
<text x="684.7" y="371.7" text-anchor="middle" class="value">-0.65%</text>
<text x="684.7" y="429" text-anchor="middle" class="label">V6</text>
<text x="684.7" y="448" text-anchor="middle" class="small">a718685</text>
<rect x="758.2" y="287.0" width="69.2" height="53.8" rx="3" class="pos"/>
<text x="792.8" y="279.0" text-anchor="middle" class="value">+2.73%</text>
<text x="792.8" y="429" text-anchor="middle" class="label">V7</text>
<text x="792.8" y="448" text-anchor="middle" class="small">ce99831</text>
<rect x="866.3" y="340.8" width="69.2" height="3.8" rx="3" class="neutral"/>
<text x="900.9" y="362.7" text-anchor="middle" class="value">-0.19%</text>
<text x="900.9" y="429" text-anchor="middle" class="label">V8</text>
<text x="900.9" y="448" text-anchor="middle" class="small">caa5428</text>
<text transform="translate(23 222.5) rotate(-90)" text-anchor="middle" class="label">throughput change vs. preceding revision</text>
<text x="90" y="482" class="small">Teal/red: Holm-adjusted p&lt;0.05; gray: not statistically distinguishable from the preceding revision.</text>
</svg>
