<svg xmlns="http://www.w3.org/2000/svg" width="980" height="520" viewBox="0 0 980 520">
<rect width="100%" height="100%" fill="#ffffff"/>
<style>text{font-family:Inter,Helvetica,Arial,sans-serif;fill:#172033}.axis{stroke:#718096;stroke-width:1}.grid{stroke:#dbe4ee;stroke-width:1}.line{fill:none;stroke:#006d77;stroke-width:4}.ci{stroke:#e29578;stroke-width:3}.dot{fill:#006d77;stroke:white;stroke-width:2}.label{font-size:14px}.small{font-size:12px;fill:#526174}.title{font-size:21px;font-weight:700}</style>
<text x="90" y="27" class="title">Qwen3-8B end-to-end generation throughput</text>
<line x1="90" y1="415.0" x2="955" y2="415.0" class="grid"/>
<text x="78" y="420.0" text-anchor="end" class="label">15</text>
<line x1="90" y1="375.5" x2="955" y2="375.5" class="grid"/>
<text x="78" y="380.5" text-anchor="end" class="label">16</text>
<line x1="90" y1="336.1" x2="955" y2="336.1" class="grid"/>
<text x="78" y="341.1" text-anchor="end" class="label">17</text>
<line x1="90" y1="296.6" x2="955" y2="296.6" class="grid"/>
<text x="78" y="301.6" text-anchor="end" class="label">18</text>
<line x1="90" y1="257.1" x2="955" y2="257.1" class="grid"/>
<text x="78" y="262.1" text-anchor="end" class="label">19</text>
<line x1="90" y1="217.6" x2="955" y2="217.6" class="grid"/>
<text x="78" y="222.6" text-anchor="end" class="label">20</text>
<line x1="90" y1="178.2" x2="955" y2="178.2" class="grid"/>
<text x="78" y="183.2" text-anchor="end" class="label">21</text>
<line x1="90" y1="138.7" x2="955" y2="138.7" class="grid"/>
<text x="78" y="143.7" text-anchor="end" class="label">22</text>
<line x1="90" y1="99.2" x2="955" y2="99.2" class="grid"/>
<text x="78" y="104.2" text-anchor="end" class="label">23</text>
<line x1="90" y1="59.7" x2="955" y2="59.7" class="grid"/>
<text x="78" y="64.7" text-anchor="end" class="label">24</text>
<line x1="90" y1="40" x2="90" y2="415" class="axis"/>
<line x1="90" y1="415" x2="955" y2="415" class="axis"/>
<polyline points="90.0,365.1 198.1,220.1 306.2,194.1 414.4,184.8 522.5,198.7 630.6,88.7 738.8,94.7 846.9,69.9 955.0,71.7" class="line"/>
<line x1="90.0" y1="363.3" x2="90.0" y2="366.9" class="ci"/>
<line x1="84.0" y1="363.3" x2="96.0" y2="363.3" class="ci"/>
<line x1="84.0" y1="366.9" x2="96.0" y2="366.9" class="ci"/>
<circle cx="90.0" cy="365.1" r="7" class="dot"/>
<text x="90.0" y="443" text-anchor="middle" class="label">V0</text>
<text x="90.0" y="462" text-anchor="middle" class="small">7482967</text>
<line x1="198.1" y1="216.1" x2="198.1" y2="224.1" class="ci"/>
<line x1="192.1" y1="216.1" x2="204.1" y2="216.1" class="ci"/>
<line x1="192.1" y1="224.1" x2="204.1" y2="224.1" class="ci"/>
<circle cx="198.1" cy="220.1" r="7" class="dot"/>
<text x="198.1" y="443" text-anchor="middle" class="label">V1</text>
<text x="198.1" y="462" text-anchor="middle" class="small">9978a9b</text>
<line x1="306.2" y1="190.1" x2="306.2" y2="198.1" class="ci"/>
<line x1="300.2" y1="190.1" x2="312.2" y2="190.1" class="ci"/>
<line x1="300.2" y1="198.1" x2="312.2" y2="198.1" class="ci"/>
<circle cx="306.2" cy="194.1" r="7" class="dot"/>
<text x="306.2" y="443" text-anchor="middle" class="label">V2</text>
<text x="306.2" y="462" text-anchor="middle" class="small">10459b5</text>
<line x1="414.4" y1="180.6" x2="414.4" y2="189.0" class="ci"/>
<line x1="408.4" y1="180.6" x2="420.4" y2="180.6" class="ci"/>
<line x1="408.4" y1="189.0" x2="420.4" y2="189.0" class="ci"/>
<circle cx="414.4" cy="184.8" r="7" class="dot"/>
<text x="414.4" y="443" text-anchor="middle" class="label">V3</text>
<text x="414.4" y="462" text-anchor="middle" class="small">3fe072b</text>
<line x1="522.5" y1="194.2" x2="522.5" y2="203.3" class="ci"/>
<line x1="516.5" y1="194.2" x2="528.5" y2="194.2" class="ci"/>
<line x1="516.5" y1="203.3" x2="528.5" y2="203.3" class="ci"/>
<circle cx="522.5" cy="198.7" r="7" class="dot"/>
<text x="522.5" y="443" text-anchor="middle" class="label">V4</text>
<text x="522.5" y="462" text-anchor="middle" class="small">83baa8d</text>
<line x1="630.6" y1="85.4" x2="630.6" y2="92.1" class="ci"/>
<line x1="624.6" y1="85.4" x2="636.6" y2="85.4" class="ci"/>
<line x1="624.6" y1="92.1" x2="636.6" y2="92.1" class="ci"/>
<circle cx="630.6" cy="88.7" r="7" class="dot"/>
<text x="630.6" y="443" text-anchor="middle" class="label">V5</text>
<text x="630.6" y="462" text-anchor="middle" class="small">e534690</text>
<line x1="738.8" y1="90.5" x2="738.8" y2="99.0" class="ci"/>
<line x1="732.8" y1="90.5" x2="744.8" y2="90.5" class="ci"/>
<line x1="732.8" y1="99.0" x2="744.8" y2="99.0" class="ci"/>
<circle cx="738.8" cy="94.7" r="7" class="dot"/>
<text x="738.8" y="443" text-anchor="middle" class="label">V6</text>
<text x="738.8" y="462" text-anchor="middle" class="small">a718685</text>
<line x1="846.9" y1="65.4" x2="846.9" y2="74.3" class="ci"/>
<line x1="840.9" y1="65.4" x2="852.9" y2="65.4" class="ci"/>
<line x1="840.9" y1="74.3" x2="852.9" y2="74.3" class="ci"/>
<circle cx="846.9" cy="69.9" r="7" class="dot"/>
<text x="846.9" y="443" text-anchor="middle" class="label">V7</text>
<text x="846.9" y="462" text-anchor="middle" class="small">ce99831</text>
<line x1="955.0" y1="67.8" x2="955.0" y2="75.6" class="ci"/>
<line x1="949.0" y1="67.8" x2="961.0" y2="67.8" class="ci"/>
<line x1="949.0" y1="75.6" x2="961.0" y2="75.6" class="ci"/>
<circle cx="955.0" cy="71.7" r="7" class="dot"/>
<text x="955.0" y="443" text-anchor="middle" class="label">V8</text>
<text x="955.0" y="462" text-anchor="middle" class="small">caa5428</text>
<text transform="translate(23 227.5) rotate(-90)" text-anchor="middle" class="label">tokens/s (mean and 95% t interval)</text>
<text x="90" y="505" class="small">32 retained requests per revision; two compile/warm-up requests excluded; 128 generated tokens/request.</text>
</svg>
