<svg xmlns="http://www.w3.org/2000/svg" width="980" height="520" viewBox="0 0 980 520">
<rect width="100%" height="100%" fill="#ffffff"/>
<style>text{font-family:Inter,Helvetica,Arial,sans-serif;fill:#172033}.axis{stroke:#718096;stroke-width:1}.grid{stroke:#dbe4ee;stroke-width:1}.line{fill:none;stroke:#006d77;stroke-width:4}.ci{stroke:#e29578;stroke-width:3}.dot{fill:#006d77;stroke:white;stroke-width:2}.label{font-size:14px}.small{font-size:12px;fill:#526174}.title{font-size:21px;font-weight:700}</style>
<text x="90" y="27" class="title">Qwen3-8B end-to-end generation throughput</text>
<line x1="90" y1="415.0" x2="955" y2="415.0" class="grid"/>
<text x="78" y="420.0" text-anchor="end" class="label">15</text>
<line x1="90" y1="385.0" x2="955" y2="385.0" class="grid"/>
<text x="78" y="390.0" text-anchor="end" class="label">16</text>
<line x1="90" y1="355.0" x2="955" y2="355.0" class="grid"/>
<text x="78" y="360.0" text-anchor="end" class="label">17</text>
<line x1="90" y1="325.0" x2="955" y2="325.0" class="grid"/>
<text x="78" y="330.0" text-anchor="end" class="label">18</text>
<line x1="90" y1="295.0" x2="955" y2="295.0" class="grid"/>
<text x="78" y="300.0" text-anchor="end" class="label">19</text>
<line x1="90" y1="265.0" x2="955" y2="265.0" class="grid"/>
<text x="78" y="270.0" text-anchor="end" class="label">20</text>
<line x1="90" y1="235.0" x2="955" y2="235.0" class="grid"/>
<text x="78" y="240.0" text-anchor="end" class="label">21</text>
<line x1="90" y1="205.0" x2="955" y2="205.0" class="grid"/>
<text x="78" y="210.0" text-anchor="end" class="label">22</text>
<line x1="90" y1="175.0" x2="955" y2="175.0" class="grid"/>
<text x="78" y="180.0" text-anchor="end" class="label">23</text>
<line x1="90" y1="145.0" x2="955" y2="145.0" class="grid"/>
<text x="78" y="150.0" text-anchor="end" class="label">24</text>
<line x1="90" y1="115.0" x2="955" y2="115.0" class="grid"/>
<text x="78" y="120.0" text-anchor="end" class="label">25</text>
<line x1="90" y1="85.0" x2="955" y2="85.0" class="grid"/>
<text x="78" y="90.0" text-anchor="end" class="label">26</text>
<line x1="90" y1="55.0" x2="955" y2="55.0" class="grid"/>
<text x="78" y="60.0" text-anchor="end" class="label">27</text>
<line x1="90" y1="40" x2="90" y2="415" class="axis"/>
<line x1="90" y1="415" x2="955" y2="415" class="axis"/>
<polyline points="90.0,377.1 186.1,266.9 282.2,247.1 378.3,240.0 474.4,250.6 570.6,167.0 666.7,171.6 762.8,152.7 858.9,154.1 955.0,81.3" class="line"/>
<line x1="90.0" y1="375.7" x2="90.0" y2="378.4" class="ci"/>
<line x1="84.0" y1="375.7" x2="96.0" y2="375.7" class="ci"/>
<line x1="84.0" y1="378.4" x2="96.0" y2="378.4" class="ci"/>
<circle cx="90.0" cy="377.1" r="7" class="dot"/>
<text x="90.0" y="443" text-anchor="middle" class="label">V0</text>
<text x="90.0" y="462" text-anchor="middle" class="small">7482967</text>
<line x1="186.1" y1="263.8" x2="186.1" y2="269.9" class="ci"/>
<line x1="180.1" y1="263.8" x2="192.1" y2="263.8" class="ci"/>
<line x1="180.1" y1="269.9" x2="192.1" y2="269.9" class="ci"/>
<circle cx="186.1" cy="266.9" r="7" class="dot"/>
<text x="186.1" y="443" text-anchor="middle" class="label">V1</text>
<text x="186.1" y="462" text-anchor="middle" class="small">9978a9b</text>
<line x1="282.2" y1="244.1" x2="282.2" y2="250.2" class="ci"/>
<line x1="276.2" y1="244.1" x2="288.2" y2="244.1" class="ci"/>
<line x1="276.2" y1="250.2" x2="288.2" y2="250.2" class="ci"/>
<circle cx="282.2" cy="247.1" r="7" class="dot"/>
<text x="282.2" y="443" text-anchor="middle" class="label">V2</text>
<text x="282.2" y="462" text-anchor="middle" class="small">10459b5</text>
<line x1="378.3" y1="236.9" x2="378.3" y2="243.2" class="ci"/>
<line x1="372.3" y1="236.9" x2="384.3" y2="236.9" class="ci"/>
<line x1="372.3" y1="243.2" x2="384.3" y2="243.2" class="ci"/>
<circle cx="378.3" cy="240.0" r="7" class="dot"/>
<text x="378.3" y="443" text-anchor="middle" class="label">V3</text>
<text x="378.3" y="462" text-anchor="middle" class="small">3fe072b</text>
<line x1="474.4" y1="247.2" x2="474.4" y2="254.1" class="ci"/>
<line x1="468.4" y1="247.2" x2="480.4" y2="247.2" class="ci"/>
<line x1="468.4" y1="254.1" x2="480.4" y2="254.1" class="ci"/>
<circle cx="474.4" cy="250.6" r="7" class="dot"/>
<text x="474.4" y="443" text-anchor="middle" class="label">V4</text>
<text x="474.4" y="462" text-anchor="middle" class="small">83baa8d</text>
<line x1="570.6" y1="164.5" x2="570.6" y2="169.6" class="ci"/>
<line x1="564.6" y1="164.5" x2="576.6" y2="164.5" class="ci"/>
<line x1="564.6" y1="169.6" x2="576.6" y2="169.6" class="ci"/>
<circle cx="570.6" cy="167.0" r="7" class="dot"/>
<text x="570.6" y="443" text-anchor="middle" class="label">V5</text>
<text x="570.6" y="462" text-anchor="middle" class="small">e534690</text>
<line x1="666.7" y1="168.4" x2="666.7" y2="174.8" class="ci"/>
<line x1="660.7" y1="168.4" x2="672.7" y2="168.4" class="ci"/>
<line x1="660.7" y1="174.8" x2="672.7" y2="174.8" class="ci"/>
<circle cx="666.7" cy="171.6" r="7" class="dot"/>
<text x="666.7" y="443" text-anchor="middle" class="label">V6</text>
<text x="666.7" y="462" text-anchor="middle" class="small">a718685</text>
<line x1="762.8" y1="149.3" x2="762.8" y2="156.0" class="ci"/>
<line x1="756.8" y1="149.3" x2="768.8" y2="149.3" class="ci"/>
<line x1="756.8" y1="156.0" x2="768.8" y2="156.0" class="ci"/>
<circle cx="762.8" cy="152.7" r="7" class="dot"/>
<text x="762.8" y="443" text-anchor="middle" class="label">V7</text>
<text x="762.8" y="462" text-anchor="middle" class="small">ce99831</text>
<line x1="858.9" y1="151.1" x2="858.9" y2="157.0" class="ci"/>
<line x1="852.9" y1="151.1" x2="864.9" y2="151.1" class="ci"/>
<line x1="852.9" y1="157.0" x2="864.9" y2="157.0" class="ci"/>
<circle cx="858.9" cy="154.1" r="7" class="dot"/>
<text x="858.9" y="443" text-anchor="middle" class="label">V8</text>
<text x="858.9" y="462" text-anchor="middle" class="small">caa5428</text>
<line x1="955.0" y1="77.1" x2="955.0" y2="85.6" class="ci"/>
<line x1="949.0" y1="77.1" x2="961.0" y2="77.1" class="ci"/>
<line x1="949.0" y1="85.6" x2="961.0" y2="85.6" class="ci"/>
<circle cx="955.0" cy="81.3" r="7" class="dot"/>
<text x="955.0" y="443" text-anchor="middle" class="label">V9</text>
<text x="955.0" y="462" text-anchor="middle" class="small">627a32d</text>
<text transform="translate(23 227.5) rotate(-90)" text-anchor="middle" class="label">tokens/s (mean and 95% t interval)</text>
<text x="90" y="505" class="small">32 retained requests per revision; two compile/warm-up requests excluded; 128 generated tokens/request.</text>
</svg>
