<svg xmlns="http://www.w3.org/2000/svg" width="980" height="510" viewBox="0 0 980 510">
<rect width="100%" height="100%" fill="#ffffff"/>
<style>text{font-family:Inter,Helvetica,Arial,sans-serif;fill:#172033}.axis{stroke:#718096;stroke-width:1.2}.grid{stroke:#dbe4ee;stroke-width:1}.libtt{fill:#006d77}.upstream{fill:#e29578}.ci{stroke:#172033;stroke-width:3}.label{font-size:14px}.small{font-size:12px;fill:#526174}.value{font-size:15px;font-weight:700}.title{font-size:21px;font-weight:700}.legend{font-size:13px}</style>
<text x="100" y="29" class="title">Same-clock Qwen3-8B streaming comparison</text>
<rect x="608" y="16" width="16" height="16" rx="2" class="libtt"/>
<text x="631" y="29" class="legend">libtt 37d5460</text>
<rect x="760" y="16" width="16" height="16" rx="2" class="upstream"/>
<text x="783" y="29" class="legend">TTIS v0.10.0</text>
<line x1="100" y1="395.0" x2="950" y2="395.0" class="grid"/>
<text x="88" y="400.0" text-anchor="end" class="label">0</text>
<line x1="100" y1="340.0" x2="950" y2="340.0" class="grid"/>
<text x="88" y="345.0" text-anchor="end" class="label">5</text>
<line x1="100" y1="285.0" x2="950" y2="285.0" class="grid"/>
<text x="88" y="290.0" text-anchor="end" class="label">10</text>
<line x1="100" y1="230.0" x2="950" y2="230.0" class="grid"/>
<text x="88" y="235.0" text-anchor="end" class="label">15</text>
<line x1="100" y1="175.0" x2="950" y2="175.0" class="grid"/>
<text x="88" y="180.0" text-anchor="end" class="label">20</text>
<line x1="100" y1="120.0" x2="950" y2="120.0" class="grid"/>
<text x="88" y="125.0" text-anchor="end" class="label">25</text>
<line x1="100" y1="65.0" x2="950" y2="65.0" class="grid"/>
<text x="88" y="70.0" text-anchor="end" class="label">30</text>
<line x1="100" y1="65" x2="100" y2="395" class="axis"/>
<line x1="100" y1="395" x2="950" y2="395" class="axis"/>
<rect x="188.5" y="89.7" width="112" height="305.3" rx="4" class="libtt"/>
<line x1="244.5" y1="88.4" x2="244.5" y2="91.0" class="ci"/>
<line x1="237.5" y1="88.4" x2="251.5" y2="88.4" class="ci"/>
<line x1="237.5" y1="91.0" x2="251.5" y2="91.0" class="ci"/>
<text x="244.5" y="77.7" text-anchor="middle" class="value">27.753</text>
<rect x="324.5" y="121.2" width="112" height="273.8" rx="4" class="upstream"/>
<line x1="380.5" y1="119.1" x2="380.5" y2="123.3" class="ci"/>
<line x1="373.5" y1="119.1" x2="387.5" y2="119.1" class="ci"/>
<line x1="373.5" y1="123.3" x2="387.5" y2="123.3" class="ci"/>
<text x="380.5" y="109.2" text-anchor="middle" class="value">24.887</text>
<text x="312.5" y="424" text-anchor="middle" class="label">Pure decode</text>
<rect x="613.5" y="91.2" width="112" height="303.8" rx="4" class="libtt"/>
<line x1="669.5" y1="89.9" x2="669.5" y2="92.5" class="ci"/>
<line x1="662.5" y1="89.9" x2="676.5" y2="89.9" class="ci"/>
<line x1="662.5" y1="92.5" x2="676.5" y2="92.5" class="ci"/>
<text x="669.5" y="79.2" text-anchor="middle" class="value">27.619</text>
<rect x="749.5" y="122.5" width="112" height="272.5" rx="4" class="upstream"/>
<line x1="805.5" y1="120.4" x2="805.5" y2="124.5" class="ci"/>
<line x1="798.5" y1="120.4" x2="812.5" y2="120.4" class="ci"/>
<line x1="798.5" y1="124.5" x2="812.5" y2="124.5" class="ci"/>
<text x="805.5" y="110.5" text-anchor="middle" class="value">24.776</text>
<text x="737.5" y="424" text-anchor="middle" class="label">Streaming E2E</text>
<text transform="translate(25 230.0) rotate(-90)" text-anchor="middle" class="label">tokens/s (mean and 95% t interval)</text>
<text x="100" y="462" class="small">32 retained serial requests per implementation; two warm-ups; 128 generated tokens/request.</text>
<text x="100" y="482" class="small">Both use the same loopback streaming clock: 127 inter-token intervals for decode and request-to-last-token for E2E.</text>
</svg>
