<svg xmlns="http://www.w3.org/2000/svg" width="980" height="510" viewBox="0 0 980 510">
<rect width="100%" height="100%" fill="#ffffff"/>
<style>text{font-family:Helvetica,Arial,sans-serif;fill:#111}.axis{stroke:#555;stroke-width:1.2}.grid{stroke:#d0d0d0;stroke-width:1}.libtt{fill:#333}.upstream{fill:#aaa}.ci{stroke:#111;stroke-width:2.5}.label{font-size:14px}.small{font-size:12px;fill:#444}.value{font-size:15px;font-weight:700}.title{font-size:21px;font-weight:700}.legend{font-size:13px}</style>
<text x="100" y="29" class="title">Same-clock Qwen3-8B streaming comparison</text>
<rect x="608" y="16" width="16" height="16" rx="2" class="libtt"/>
<text x="631" y="29" class="legend">libtt current</text>
<rect x="760" y="16" width="16" height="16" rx="2" class="upstream"/>
<text x="783" y="29" class="legend">TTIS v0.10.0</text>
<line x1="100" y1="395.0" x2="950" y2="395.0" class="grid"/>
<text x="88" y="400.0" text-anchor="end" class="label">0</text>
<line x1="100" y1="347.9" x2="950" y2="347.9" class="grid"/>
<text x="88" y="352.9" text-anchor="end" class="label">5</text>
<line x1="100" y1="300.7" x2="950" y2="300.7" class="grid"/>
<text x="88" y="305.7" text-anchor="end" class="label">10</text>
<line x1="100" y1="253.6" x2="950" y2="253.6" class="grid"/>
<text x="88" y="258.6" text-anchor="end" class="label">15</text>
<line x1="100" y1="206.4" x2="950" y2="206.4" class="grid"/>
<text x="88" y="211.4" text-anchor="end" class="label">20</text>
<line x1="100" y1="159.3" x2="950" y2="159.3" class="grid"/>
<text x="88" y="164.3" text-anchor="end" class="label">25</text>
<line x1="100" y1="112.1" x2="950" y2="112.1" class="grid"/>
<text x="88" y="117.1" text-anchor="end" class="label">30</text>
<line x1="100" y1="65.0" x2="950" y2="65.0" class="grid"/>
<text x="88" y="70.0" text-anchor="end" class="label">35</text>
<line x1="100" y1="65" x2="100" y2="395" class="axis"/>
<line x1="100" y1="395" x2="950" y2="395" class="axis"/>
<rect x="188.5" y="108.3" width="112" height="286.7" rx="4" class="libtt"/>
<line x1="244.5" y1="107.4" x2="244.5" y2="109.1" class="ci"/>
<line x1="237.5" y1="107.4" x2="251.5" y2="107.4" class="ci"/>
<line x1="237.5" y1="109.1" x2="251.5" y2="109.1" class="ci"/>
<text x="244.5" y="96.3" text-anchor="middle" class="value">30.410</text>
<rect x="324.5" y="153.3" width="112" height="241.7" rx="4" class="upstream"/>
<line x1="380.5" y1="150.9" x2="380.5" y2="155.7" class="ci"/>
<line x1="373.5" y1="150.9" x2="387.5" y2="150.9" class="ci"/>
<line x1="373.5" y1="155.7" x2="387.5" y2="155.7" class="ci"/>
<text x="380.5" y="141.3" text-anchor="middle" class="value">25.634</text>
<text x="312.5" y="424" text-anchor="middle" class="label">Pure decode</text>
<rect x="613.5" y="109.9" width="112" height="285.1" rx="4" class="libtt"/>
<line x1="669.5" y1="109.1" x2="669.5" y2="110.7" class="ci"/>
<line x1="662.5" y1="109.1" x2="676.5" y2="109.1" class="ci"/>
<line x1="662.5" y1="110.7" x2="676.5" y2="110.7" class="ci"/>
<text x="669.5" y="97.9" text-anchor="middle" class="value">30.236</text>
<rect x="749.5" y="154.6" width="112" height="240.4" rx="4" class="upstream"/>
<line x1="805.5" y1="152.2" x2="805.5" y2="156.9" class="ci"/>
<line x1="798.5" y1="152.2" x2="812.5" y2="152.2" class="ci"/>
<line x1="798.5" y1="156.9" x2="812.5" y2="156.9" class="ci"/>
<text x="805.5" y="142.6" text-anchor="middle" class="value">25.500</text>
<text x="737.5" y="424" text-anchor="middle" class="label">Streaming E2E</text>
<text transform="translate(25 230.0) rotate(-90)" text-anchor="middle" class="label">tokens/s (mean and 95% t interval)</text>
<text x="100" y="462" class="small">32 retained serial requests per implementation; two warm-ups; 128 generated tokens/request.</text>
<text x="100" y="482" class="small">Both use the same loopback streaming clock: 127 inter-token intervals for decode and request-to-last-token for E2E.</text>
</svg>
